<?xml version="1.0" standalone="no"?>
<!DOCTYPE svg PUBLIC "-//W3C//DTD SVG 20010904//EN"
 "http://www.w3.org/TR/2001/REC-SVG-20010904/DTD/svg10.dtd">
<svg version="1.0" xmlns="http://www.w3.org/2000/svg"
 width="260.000000pt" height="260.000000pt" viewBox="0 0 260.000000 260.000000"
 preserveAspectRatio="xMidYMid meet">

<g transform="translate(0.000000,260.000000) scale(0.100000,-0.100000)"
fill="#000000" stroke="none">
<path d="M1209 2338 c-399 -30 -738 -323 -840 -723 -32 -127 -32 -314 0 -440
65 -261 253 -502 484 -620 92 -47 137 -52 70 -7 -168 112 -388 313 -381 350 6
31 281 158 548 252 74 26 151 55 170 63 34 15 38 14 165 -37 195 -80 562 -234
595 -251 31 -16 70 -20 70 -7 0 10 -762 442 -779 442 -6 0 -12 -19 -13 -42 -1
-41 -1 -41 -5 -8 -3 19 -8 39 -12 43 -5 5 -180 -89 -390 -208 -210 -119 -389
-219 -398 -222 -13 -5 -15 -2 -10 17 4 15 -11 72 -41 159 l-46 136 0 140 c1
206 30 327 115 483 72 130 234 284 378 357 81 42 237 85 317 88 38 1 63 7 71
17 6 8 14 12 18 9 3 -4 9 -210 12 -458 3 -248 10 -451 15 -451 5 0 30 11 57
24 45 23 50 24 71 9 22 -16 22 -16 6 8 -10 16 -30 125 -55 309 -65 458 -70
501 -64 516 12 32 173 4 314 -55 40 -17 77 -28 82 -24 6 3 7 2 4 -3 -3 -5 8
-17 25 -27 29 -16 30 -16 17 -1 -13 16 -12 16 6 6 48 -27 139 -107 190 -169
104 -125 167 -264 200 -439 10 -49 26 -115 38 -147 17 -48 19 -72 14 -145 -4
-48 -13 -112 -21 -142 -9 -30 -13 -56 -11 -58 5 -6 25 70 41 158 60 334 -87
699 -367 910 -192 144 -413 207 -660 188z"/>
<path d="M2011 2122 c75 -95 109 -148 105 -164 -2 -10 0 -18 6 -18 5 0 6 -4 3
-10 -3 -5 -1 -10 5 -10 6 0 8 -4 5 -10 -3 -5 -1 -10 4 -10 6 0 10 -3 9 -7 -1
-5 13 -39 31 -78 18 -38 44 -108 59 -155 24 -78 26 -100 26 -265 1 -159 -2
-189 -22 -259 -47 -163 -121 -292 -236 -414 -94 -98 -172 -156 -291 -213 -273
-131 -595 -129 -865 6 -36 18 -70 30 -77 28 -6 -2 -15 1 -19 8 -5 8 -3 9 6 4
8 -5 11 -4 7 3 -4 5 -16 8 -28 5 -14 -4 -41 8 -82 36 l-62 42 47 -43 c78 -72
195 -136 340 -186 128 -44 138 -46 274 -50 224 -7 360 29 563 150 265 158 436
412 486 723 29 179 13 334 -54 529 -44 126 -143 279 -237 366 l-38 35 35 -43z"/>
<path d="M411 1832 c-27 -51 -71 -176 -86 -247 -9 -44 -25 -101 -36 -127 -50
-122 2 -360 123 -566 30 -51 224 -259 234 -250 2 2 -24 33 -57 68 -114 122
-197 270 -241 431 -20 73 -23 106 -22 254 0 155 3 178 27 256 14 48 37 112 51
143 24 53 28 77 7 38z"/>
<path d="M1160 1476 c0 -2 7 -7 16 -10 8 -3 12 -2 9 4 -6 10 -25 14 -25 6z"/>
<path d="M1480 1436 c0 -3 36 -33 80 -66 44 -33 80 -59 80 -56 0 3 -36 33 -80
66 -44 33 -80 59 -80 56z"/>
<path d="M1650 1306 c0 -2 8 -10 18 -17 15 -13 16 -12 3 4 -13 16 -21 21 -21
13z"/>
<path d="M1690 1276 c0 -2 8 -10 18 -17 15 -13 16 -12 3 4 -13 16 -21 21 -21
13z"/>
<path d="M1740 1236 c0 -2 8 -10 18 -17 15 -13 16 -12 3 4 -13 16 -21 21 -21
13z"/>
<path d="M2166 1025 c-9 -26 -7 -32 5 -12 6 10 9 21 6 23 -2 3 -7 -2 -11 -11z"/>
</g>
</svg>
